<svg width="24" height="24" viewBox="0 0 24 24" fill="none" xmlns="http://www.w3.org/2000/svg">
<rect width="24" height="24" rx="3" fill="#1A1A1E" fill-opacity="0.86"/>
<path d="M12 18C10.3333 18 8.91667 17.4167 7.75 16.25C6.58333 15.0833 6 13.6667 6 12C6 10.3333 6.58333 8.91667 7.75 7.75C8.91667 6.58333 10.3333 6 12 6C12.0889 6 12.1833 6.00278 12.2833 6.00833C12.3833 6.01389 12.5111 6.02222 12.6667 6.03333C12.2667 6.38889 11.9556 6.82778 11.7333 7.35C11.5111 7.87222 11.4 8.42222 11.4 9C11.4 10 11.75 10.85 12.45 11.55C13.15 12.25 14 12.6 15 12.6C15.5778 12.6 16.1278 12.4972 16.65 12.2917C17.1722 12.0861 17.6111 11.8 17.9667 11.4333C17.9778 11.5667 17.9861 11.675 17.9917 11.7583C17.9972 11.8417 18 11.9222 18 12C18 13.6667 17.4167 15.0833 16.25 16.25C15.0833 17.4167 13.6667 18 12 18ZM12 17C13.2111 17 14.2667 16.625 15.1667 15.875C16.0667 15.125 16.6278 14.2444 16.85 13.2333C16.5722 13.3556 16.2741 13.4472 15.9556 13.5083C15.637 13.5694 15.3185 13.6 15 13.6C13.7257 13.6 12.6404 13.1519 11.7443 12.2558C10.8481 11.3596 10.4 10.2743 10.4 9C10.4 8.73333 10.4278 8.44722 10.4833 8.14167C10.5389 7.83611 10.6389 7.48889 10.7833 7.1C9.69444 7.4 8.79167 8.00833 8.075 8.925C7.35833 9.84167 7 10.8667 7 12C7 13.3889 7.48611 14.5694 8.45833 15.5417C9.43056 16.5139 10.6111 17 12 17Z" fill="white"/>
</svg>
