<?xml version="1.0" encoding="utf-8"?>
<svg viewBox="0 0 10.988 10.756" fill="none" xmlns="http://www.w3.org/2000/svg">
  <path d="M 4.828 10.705 C 4.639 10.705 4.48 10.641 4.353 10.513 C 4.225 10.385 4.161 10.227 4.161 10.038 L 4.161 6.038 L 0.178 0.955 C 0.022 0.766 0 0.566 0.111 0.355 C 0.222 0.143 0.394 0.038 0.628 0.038 L 10.361 0.038 C 10.594 0.038 10.767 0.143 10.878 0.355 C 10.989 0.566 10.967 0.766 10.811 0.955 L 6.828 6.038 L 6.828 10.038 C 6.828 10.227 6.764 10.385 6.636 10.513 C 6.508 10.641 6.35 10.705 6.161 10.705 L 4.828 10.705 Z M 5.494 6.105 L 9.494 1.038 L 1.494 1.038 L 5.494 6.105 Z" style="fill: rgb(0, 0, 0); paint-order: fill;"/>
</svg>