<?xml version="1.0" encoding="utf-8"?>
<svg viewBox="0 0 13.421 13.41" fill="none" xmlns="http://www.w3.org/2000/svg">
  <path d="M 6.703 13.364 C 5.769 13.364 4.897 13.189 4.086 12.839 C 3.275 12.489 2.569 12.014 1.969 11.414 C 1.369 10.814 0.897 10.105 0.553 9.289 C 0.208 8.472 0.036 7.597 0.036 6.664 C 0.036 5.73 0.208 4.861 0.553 4.055 C 0.897 3.25 1.369 2.547 1.969 1.947 C 2.569 1.347 3.275 0.878 4.086 0.539 C 4.897 0.2 5.769 0.03 6.703 0.03 C 7.636 0.03 8.508 0.2 9.319 0.539 C 10.131 0.878 10.836 1.347 11.436 1.947 C 12.036 2.547 12.508 3.25 12.853 4.055 C 13.197 4.861 13.369 5.73 13.369 6.664 C 13.369 7.597 13.197 8.472 12.853 9.289 C 12.508 10.105 12.036 10.814 11.436 11.414 C 10.836 12.014 10.131 12.489 9.319 12.839 C 8.508 13.189 7.636 13.364 6.703 13.364 Z M 6.703 12.397 C 7.092 11.997 7.417 11.539 7.678 11.022 C 7.939 10.505 8.153 9.892 8.319 9.18 L 5.103 9.18 C 5.258 9.847 5.467 10.447 5.728 10.98 C 5.989 11.514 6.314 11.986 6.703 12.397 Z M 5.286 12.197 C 5.008 11.775 4.769 11.319 4.569 10.83 C 4.369 10.342 4.203 9.792 4.069 9.18 L 1.569 9.18 C 1.992 9.969 2.481 10.589 3.036 11.039 C 3.592 11.489 4.342 11.875 5.286 12.197 Z M 8.136 12.18 C 8.936 11.925 9.656 11.542 10.294 11.03 C 10.933 10.519 11.447 9.903 11.836 9.18 L 9.353 9.18 C 9.208 9.78 9.039 10.325 8.844 10.814 C 8.65 11.303 8.414 11.758 8.136 12.18 Z M 1.236 8.18 L 3.886 8.18 C 3.853 7.88 3.833 7.611 3.828 7.372 C 3.822 7.133 3.819 6.897 3.819 6.664 C 3.819 6.386 3.825 6.139 3.836 5.922 C 3.847 5.705 3.869 5.464 3.903 5.197 L 1.236 5.197 C 1.158 5.464 1.106 5.703 1.078 5.914 C 1.05 6.125 1.036 6.375 1.036 6.664 C 1.036 6.953 1.05 7.211 1.078 7.439 C 1.106 7.667 1.158 7.914 1.236 8.18 Z M 4.919 8.18 L 8.503 8.18 C 8.547 7.836 8.575 7.555 8.586 7.339 C 8.597 7.122 8.603 6.897 8.603 6.664 C 8.603 6.442 8.597 6.228 8.586 6.022 C 8.575 5.817 8.547 5.542 8.503 5.197 L 4.919 5.197 C 4.875 5.542 4.847 5.817 4.836 6.022 C 4.825 6.228 4.819 6.442 4.819 6.664 C 4.819 6.897 4.825 7.122 4.836 7.339 C 4.847 7.555 4.875 7.836 4.919 8.18 Z M 9.503 8.18 L 12.169 8.18 C 12.247 7.914 12.3 7.667 12.328 7.439 C 12.356 7.211 12.369 6.953 12.369 6.664 C 12.369 6.375 12.356 6.125 12.328 5.914 C 12.3 5.703 12.247 5.464 12.169 5.197 L 9.519 5.197 C 9.553 5.586 9.575 5.883 9.586 6.089 C 9.597 6.294 9.603 6.486 9.603 6.664 C 9.603 6.908 9.594 7.139 9.578 7.355 C 9.561 7.572 9.536 7.847 9.503 8.18 Z M 9.336 4.197 L 11.836 4.197 C 11.469 3.43 10.967 2.792 10.328 2.28 C 9.689 1.769 8.953 1.408 8.119 1.197 C 8.397 1.608 8.633 2.053 8.828 2.53 C 9.022 3.008 9.192 3.564 9.336 4.197 Z M 5.103 4.197 L 8.336 4.197 C 8.214 3.608 8.008 3.039 7.719 2.489 C 7.431 1.939 7.092 1.453 6.703 1.03 C 6.347 1.33 6.047 1.725 5.803 2.214 C 5.558 2.703 5.325 3.364 5.103 4.197 Z M 1.569 4.197 L 4.086 4.197 C 4.208 3.597 4.364 3.061 4.553 2.589 C 4.742 2.117 4.981 1.658 5.269 1.214 C 4.436 1.425 3.708 1.78 3.086 2.28 C 2.464 2.78 1.958 3.419 1.569 4.197 Z" style="fill: rgb(255, 255, 255);"/>
</svg>