<svg width="29" height="29" viewBox="0 0 29 29" fill="none" xmlns="http://www.w3.org/2000/svg">
<path d="M13.5938 20.5417H8.45841C6.78689 20.5417 5.36206 19.9526 4.18394 18.7745C3.00581 17.5964 2.41675 16.1716 2.41675 14.5C2.41675 12.8285 3.00581 11.4037 4.18394 10.2256C5.36206 9.04744 6.78689 8.45837 8.45841 8.45837H13.5938V10.2709H8.45841C7.28365 10.2709 6.2851 10.6814 5.46274 11.5023C4.64041 12.3233 4.22925 13.3201 4.22925 14.4929C4.22925 15.6657 4.64041 16.665 5.46274 17.4907C6.2851 18.3164 7.28365 18.7292 8.45841 18.7292H13.5938V20.5417ZM9.81779 15.4063V13.5938H19.1824V15.4063H9.81779ZM15.4063 20.5417V18.7292H20.5417C21.7165 18.7292 22.7151 18.3187 23.5374 17.4978C24.3597 16.6768 24.7709 15.6799 24.7709 14.5071C24.7709 13.3344 24.3597 12.3351 23.5374 11.5094C22.7151 10.6837 21.7165 10.2709 20.5417 10.2709H15.4063V8.45837H20.5417C22.2133 8.45837 23.6381 9.04744 24.8162 10.2256C25.9944 11.4037 26.5834 12.8285 26.5834 14.5C26.5834 16.1716 25.9944 17.5964 24.8162 18.7745C23.6381 19.9526 22.2133 20.5417 20.5417 20.5417H15.4063Z" fill="#897AF1"/>
</svg>
