<?xml version="1.0" encoding="utf-8"?>
<svg viewBox="0.474 0 12.052 16" fill="none" xmlns="http://www.w3.org/2000/svg">
  <path d="M1.625 16C1.31563 16 1.05078 15.8881 0.830469 15.6643C0.610156 15.4405 0.5 15.1714 0.5 14.8571V6.59048C0.5 6.27619 0.610156 6.00714 0.830469 5.78333C1.05078 5.55952 1.31563 5.44762 1.625 5.44762H2.9375V3.61905C2.9375 2.61778 3.28504 1.76429 3.98011 1.05857C4.67519 0.352857 5.51581 0 6.50199 0C7.48816 0 8.32813 0.352857 9.02188 1.05857C9.71563 1.76429 10.0625 2.61778 10.0625 3.61905V5.44762H11.375C11.6844 5.44762 11.9492 5.55952 12.1695 5.78333C12.3898 6.00714 12.5 6.27619 12.5 6.59048V14.8571C12.5 15.1714 12.3898 15.4405 12.1695 15.6643C11.9492 15.8881 11.6844 16 11.375 16H1.625ZM1.625 14.8571H11.375V6.59048H1.625V14.8571ZM6.50315 12.1905C6.90105 12.1905 7.24063 12.0506 7.52188 11.7708C7.80313 11.4911 7.94375 11.1548 7.94375 10.7619C7.94375 10.381 7.80207 10.0349 7.51872 9.72381C7.23537 9.4127 6.89475 9.25714 6.49685 9.25714C6.09895 9.25714 5.75938 9.4127 5.47813 9.72381C5.19688 10.0349 5.05625 10.3841 5.05625 10.7714C5.05625 11.1587 5.19793 11.4921 5.48128 11.7714C5.76463 12.0508 6.10525 12.1905 6.50315 12.1905ZM4.0625 5.44762H8.9375V3.61905C8.9375 2.93121 8.70074 2.34656 8.22721 1.86509C7.75367 1.3836 7.17868 1.14286 6.50221 1.14286C5.82574 1.14286 5.25 1.3836 4.775 1.86509C4.3 2.34656 4.0625 2.93121 4.0625 3.61905V5.44762Z" style="fill: rgb(0, 0, 0);" transform="matrix(1, 0, 0, 1, 0, -2.220446049250313e-16)"/>
</svg>