<?xml version="1.0" encoding="utf-8"?>
<svg viewBox="0 -0.574 22.114 20.2" fill="none" xmlns="http://www.w3.org/2000/svg">
  <path d="M 3.768 17.048 C 2.768 17.048 1.914 16.69 1.206 15.973 C 0.498 15.256 0.127 14.39 0.093 13.373 C 0.093 13.223 0.102 13.073 0.118 12.923 C 0.135 12.773 0.16 12.623 0.193 12.473 L 2.293 4.073 C 2.527 3.173 3.002 2.444 3.718 1.885 C 4.435 1.327 5.252 1.048 6.168 1.048 L 15.918 1.048 C 16.835 1.048 17.652 1.327 18.368 1.885 C 19.085 2.444 19.56 3.173 19.793 4.073 L 21.893 12.473 C 21.927 12.623 21.956 12.777 21.981 12.935 C 22.006 13.094 22.018 13.248 22.018 13.398 C 22.018 14.415 21.656 15.277 20.931 15.985 C 20.206 16.694 19.335 17.048 18.318 17.048 C 17.618 17.048 16.968 16.865 16.368 16.498 C 15.768 16.131 15.318 15.631 15.018 14.998 L 14.318 13.548 C 14.235 13.381 14.11 13.256 13.943 13.173 C 13.777 13.09 13.602 13.048 13.418 13.048 L 8.668 13.048 C 8.485 13.048 8.31 13.09 8.143 13.173 C 7.977 13.256 7.852 13.381 7.768 13.548 L 7.068 14.998 C 6.768 15.631 6.318 16.131 5.718 16.498 C 5.118 16.865 4.468 17.048 3.768 17.048 Z M 3.835 15.548 C 4.241 15.548 4.616 15.44 4.96 15.224 C 5.304 15.007 5.566 14.715 5.743 14.348 L 6.443 12.923 C 6.66 12.49 6.964 12.152 7.356 11.91 C 7.748 11.669 8.185 11.548 8.668 11.548 L 13.418 11.548 C 13.902 11.548 14.339 11.673 14.731 11.923 C 15.122 12.173 15.435 12.506 15.668 12.923 L 16.368 14.348 C 16.546 14.715 16.807 15.007 17.152 15.224 C 17.496 15.44 17.87 15.548 18.275 15.548 C 18.87 15.548 19.385 15.344 19.818 14.935 C 20.252 14.527 20.477 14.023 20.493 13.423 C 20.493 13.356 20.468 13.156 20.418 12.823 L 18.318 4.448 C 18.185 3.898 17.898 3.444 17.458 3.085 C 17.018 2.727 16.505 2.548 15.918 2.548 L 6.168 2.548 C 5.59 2.548 5.079 2.723 4.635 3.073 C 4.19 3.423 3.902 3.881 3.768 4.448 L 1.668 12.823 C 1.652 12.89 1.627 13.081 1.593 13.398 C 1.593 14.006 1.812 14.516 2.25 14.929 C 2.687 15.342 3.216 15.548 3.835 15.548 Z M 12.548 7.798 C 12.761 7.798 12.939 7.726 13.081 7.581 C 13.222 7.436 13.293 7.257 13.293 7.043 C 13.293 6.83 13.221 6.652 13.076 6.51 C 12.932 6.369 12.753 6.298 12.539 6.298 C 12.325 6.298 12.147 6.37 12.006 6.515 C 11.864 6.659 11.793 6.838 11.793 7.052 C 11.793 7.266 11.866 7.444 12.01 7.585 C 12.155 7.727 12.334 7.798 12.548 7.798 Z M 14.548 5.798 C 14.761 5.798 14.939 5.726 15.081 5.581 C 15.222 5.436 15.293 5.257 15.293 5.043 C 15.293 4.83 15.221 4.652 15.076 4.51 C 14.932 4.369 14.753 4.298 14.539 4.298 C 14.325 4.298 14.147 4.37 14.006 4.515 C 13.864 4.659 13.793 4.838 13.793 5.052 C 13.793 5.266 13.866 5.444 14.01 5.585 C 14.155 5.727 14.334 5.798 14.548 5.798 Z M 14.548 9.798 C 14.761 9.798 14.939 9.726 15.081 9.581 C 15.222 9.436 15.293 9.257 15.293 9.043 C 15.293 8.83 15.221 8.652 15.076 8.51 C 14.932 8.369 14.753 8.298 14.539 8.298 C 14.325 8.298 14.147 8.37 14.006 8.515 C 13.864 8.659 13.793 8.838 13.793 9.052 C 13.793 9.266 13.866 9.444 14.01 9.585 C 14.155 9.727 14.334 9.798 14.548 9.798 Z M 16.548 7.798 C 16.761 7.798 16.939 7.726 17.081 7.581 C 17.222 7.436 17.293 7.257 17.293 7.043 C 17.293 6.83 17.221 6.652 17.076 6.51 C 16.932 6.369 16.753 6.298 16.539 6.298 C 16.325 6.298 16.147 6.37 16.006 6.515 C 15.864 6.659 15.793 6.838 15.793 7.052 C 15.793 7.266 15.866 7.444 16.01 7.585 C 16.155 7.727 16.334 7.798 16.548 7.798 Z M 7.546 9.423 C 7.728 9.423 7.877 9.364 7.993 9.246 C 8.11 9.128 8.168 8.978 8.168 8.798 L 8.168 7.673 L 9.293 7.673 C 9.474 7.673 9.623 7.614 9.741 7.495 C 9.859 7.376 9.918 7.226 9.918 7.045 C 9.918 6.864 9.859 6.715 9.741 6.598 C 9.623 6.481 9.474 6.423 9.293 6.423 L 8.168 6.423 L 8.168 5.298 C 8.168 5.117 8.109 4.968 7.99 4.85 C 7.872 4.732 7.722 4.673 7.54 4.673 C 7.359 4.673 7.21 4.732 7.093 4.85 C 6.977 4.968 6.918 5.117 6.918 5.298 L 6.918 6.423 L 5.793 6.423 C 5.613 6.423 5.463 6.482 5.345 6.601 C 5.227 6.719 5.168 6.869 5.168 7.051 C 5.168 7.232 5.227 7.381 5.345 7.498 C 5.463 7.615 5.613 7.673 5.793 7.673 L 6.918 7.673 L 6.918 8.798 C 6.918 8.978 6.978 9.128 7.096 9.246 C 7.215 9.364 7.365 9.423 7.546 9.423 Z" style="fill: rgb(0, 0, 0);"/>
</svg>