<?xml version="1.0" encoding="utf-8"?>
<svg viewBox="0 0 16 15.508" fill="none" xmlns="http://www.w3.org/2000/svg">
  <path d="M8 7.5C6.9 7.5 6 7.15 5.3 6.45C4.6 5.75 4.25 4.85 4.25 3.75C4.25 2.65 4.6 1.75 5.3 1.05C6 0.35 6.9 0 8 0C9.1 0 10 0.35 10.7 1.05C11.4 1.75 11.75 2.65 11.75 3.75C11.75 4.85 11.4 5.75 10.7 6.45C10 7.15 9.1 7.5 8 7.5ZM0 15.525V13.175C0 12.5417 0.158333 12 0.475 11.55C0.791667 11.1 1.2 10.7583 1.7 10.525C2.81667 10.025 3.8875 9.65 4.9125 9.4C5.9375 9.15 6.96667 9.025 8 9.025C9.03333 9.025 10.0583 9.15417 11.075 9.4125C12.0917 9.67083 13.1577 10.0433 14.273 10.5299C14.7947 10.7653 15.213 11.1067 15.5278 11.554C15.8426 12.0013 16 12.5417 16 13.175V15.525H0ZM1.5 14.025H14.5V13.175C14.5 12.9083 14.4208 12.6542 14.2625 12.4125C14.1042 12.1708 13.9083 11.9917 13.675 11.875C12.6083 11.3583 11.6333 11.0042 10.75 10.8125C9.86667 10.6208 8.95 10.525 8 10.525C7.05 10.525 6.125 10.6208 5.225 10.8125C4.325 11.0042 3.35 11.3583 2.3 11.875C2.06667 11.9917 1.875 12.1708 1.725 12.4125C1.575 12.6542 1.5 12.9083 1.5 13.175V14.025ZM8 6C8.65 6 9.1875 5.7875 9.6125 5.3625C10.0375 4.9375 10.25 4.4 10.25 3.75C10.25 3.1 10.0375 2.5625 9.6125 2.1375C9.1875 1.7125 8.65 1.5 8 1.5C7.35 1.5 6.8125 1.7125 6.3875 2.1375C5.9625 2.5625 5.75 3.1 5.75 3.75C5.75 4.4 5.9625 4.9375 6.3875 5.3625C6.8125 5.7875 7.35 6 8 6Z" style="fill: rgb(0, 0, 0);" transform="matrix(1, 0, 0, 1, 0, -2.220446049250313e-16)"/>
</svg>