<?xml version="1.0" encoding="utf-8"?>
<svg viewBox="0 0 14.74 13.394" fill="none" xmlns="http://www.w3.org/2000/svg">
  <path d="M 7.295 12.348 C 7.35 12.348 7.414 12.334 7.486 12.306 C 7.559 12.278 7.617 12.242 7.661 12.198 L 13.278 6.564 C 13.423 6.42 13.531 6.255 13.603 6.07 C 13.675 5.885 13.711 5.7 13.711 5.514 C 13.711 5.326 13.675 5.137 13.603 4.948 C 13.531 4.759 13.423 4.592 13.278 4.448 L 10.278 1.448 C 10.134 1.303 9.967 1.195 9.778 1.123 C 9.589 1.051 9.4 1.014 9.211 1.014 C 9.026 1.014 8.841 1.051 8.656 1.123 C 8.471 1.195 8.306 1.303 8.161 1.448 L 7.861 1.748 L 9.211 3.114 C 9.356 3.27 9.484 3.451 9.595 3.656 C 9.706 3.862 9.761 4.087 9.761 4.331 C 9.761 4.753 9.598 5.126 9.27 5.448 C 8.942 5.77 8.567 5.931 8.145 5.931 C 7.867 5.931 7.636 5.889 7.453 5.806 C 7.27 5.723 7.102 5.604 6.95 5.45 L 5.728 4.231 L 2.711 7.248 C 2.656 7.303 2.617 7.362 2.595 7.423 C 2.573 7.485 2.561 7.55 2.561 7.621 C 2.561 7.761 2.609 7.878 2.703 7.973 C 2.798 8.067 2.915 8.114 3.056 8.114 C 3.126 8.114 3.192 8.098 3.253 8.064 C 3.314 8.031 3.367 7.992 3.411 7.948 L 5.711 5.648 L 6.411 6.348 L 4.128 8.631 C 4.073 8.687 4.034 8.748 4.011 8.814 C 3.989 8.881 3.978 8.948 3.978 9.014 C 3.978 9.148 4.028 9.264 4.128 9.364 C 4.228 9.464 4.345 9.514 4.478 9.514 C 4.545 9.514 4.609 9.501 4.67 9.473 C 4.731 9.445 4.784 9.409 4.828 9.364 L 7.128 7.064 L 7.828 7.764 L 5.545 10.048 C 5.5 10.092 5.464 10.15 5.436 10.22 C 5.409 10.29 5.395 10.361 5.395 10.431 C 5.395 10.564 5.445 10.681 5.545 10.781 C 5.645 10.881 5.761 10.931 5.895 10.931 C 5.961 10.931 6.023 10.92 6.078 10.898 C 6.134 10.875 6.189 10.837 6.245 10.781 L 8.545 8.481 L 9.245 9.181 L 6.945 11.481 C 6.889 11.537 6.85 11.598 6.828 11.664 C 6.806 11.731 6.795 11.792 6.795 11.848 C 6.795 12.003 6.839 12.125 6.928 12.214 C 7.017 12.303 7.139 12.348 7.295 12.348 Z M 7.296 13.348 C 6.928 13.348 6.6 13.212 6.311 12.939 C 6.023 12.667 5.85 12.33 5.795 11.929 C 5.417 11.875 5.1 11.72 4.845 11.464 C 4.589 11.209 4.434 10.892 4.378 10.514 C 4 10.459 3.686 10.3 3.436 10.039 C 3.186 9.778 3.034 9.464 2.978 9.098 C 2.567 9.042 2.228 8.876 1.961 8.598 C 1.695 8.32 1.561 7.987 1.561 7.598 C 1.561 7.409 1.599 7.22 1.673 7.03 C 1.748 6.841 1.855 6.674 1.995 6.531 L 5.728 2.798 L 7.561 4.631 C 7.65 4.72 7.747 4.789 7.85 4.839 C 7.954 4.889 8.058 4.914 8.161 4.914 C 8.306 4.914 8.442 4.851 8.57 4.723 C 8.698 4.595 8.761 4.458 8.761 4.312 C 8.761 4.247 8.742 4.173 8.703 4.089 C 8.664 4.006 8.6 3.92 8.511 3.831 L 6.128 1.448 C 5.984 1.303 5.817 1.195 5.628 1.123 C 5.439 1.051 5.25 1.014 5.061 1.014 C 4.876 1.014 4.691 1.051 4.506 1.123 C 4.321 1.195 4.156 1.302 4.012 1.445 L 1.478 3.981 C 1.323 4.137 1.214 4.301 1.153 4.473 C 1.092 4.645 1.056 4.839 1.045 5.056 C 1.034 5.273 1.075 5.484 1.17 5.689 C 1.264 5.895 1.378 6.081 1.511 6.248 L 0.795 6.964 C 0.573 6.72 0.392 6.426 0.253 6.081 C 0.114 5.737 0.045 5.387 0.045 5.031 C 0.045 4.698 0.109 4.378 0.236 4.073 C 0.364 3.767 0.545 3.498 0.778 3.264 L 3.295 0.748 C 3.539 0.503 3.816 0.323 4.125 0.206 C 4.433 0.089 4.75 0.031 5.075 0.031 C 5.399 0.031 5.714 0.089 6.02 0.206 C 6.325 0.323 6.6 0.503 6.845 0.748 L 7.145 1.048 L 7.445 0.748 C 7.689 0.503 7.966 0.323 8.275 0.206 C 8.583 0.089 8.9 0.031 9.225 0.031 C 9.549 0.031 9.864 0.089 10.17 0.206 C 10.475 0.323 10.75 0.503 10.995 0.748 L 13.978 3.731 C 14.223 3.976 14.406 4.253 14.528 4.565 C 14.65 4.876 14.711 5.193 14.711 5.515 C 14.711 5.837 14.65 6.151 14.528 6.456 C 14.406 6.762 14.223 7.037 13.978 7.281 L 8.361 12.898 C 8.217 13.042 8.053 13.153 7.869 13.231 C 7.686 13.309 7.494 13.348 7.296 13.348 Z" style="fill: rgb(255, 255, 255);"/>
</svg>