<?xml version="1.0" encoding="utf-8"?>
<svg viewBox="0 0 12 12" fill="none" xmlns="http://www.w3.org/2000/svg">
  <path d="M5.95 12C4.29444 12 2.88889 11.4139 1.73333 10.2417C0.577778 9.06944 0 7.65 0 5.98333H1C1 7.37222 1.47778 8.55556 2.43333 9.53333C3.38889 10.5111 4.56111 11 5.95 11C7.36111 11 8.55556 10.5056 9.53333 9.51667C10.5111 8.52778 11 7.32778 11 5.91667C11 4.53889 10.5056 3.375 9.51667 2.425C8.52778 1.475 7.33889 1 5.95 1C5.19444 1 4.48611 1.17222 3.825 1.51667C3.16389 1.86111 2.58889 2.31667 2.1 2.88333H3.85V3.88333H0.366667V0.416667H1.36667V2.18333C1.94444 1.50556 2.63056 0.972222 3.425 0.583333C4.21944 0.194444 5.06111 0 5.95 0C6.78333 0 7.56667 0.155556 8.3 0.466667C9.03333 0.777778 9.675 1.20278 10.225 1.74167C10.775 2.28056 11.2083 2.91111 11.525 3.63333C11.8417 4.35556 12 5.13333 12 5.96667C12 6.8 11.8417 7.58333 11.525 8.31667C11.2083 9.05 10.775 9.68889 10.225 10.2333C9.675 10.7778 9.03333 11.2083 8.3 11.525C7.56667 11.8417 6.78333 12 5.95 12ZM8.08333 8.71667L5.51667 6.18333V2.61667H6.51667V5.76667L8.8 8L8.08333 8.71667Z" style="fill: rgb(255, 255, 255);"/>
</svg>