<?xml version="1.0" encoding="utf-8"?>
<svg viewBox="0 0 12.104 12.067" fill="none" xmlns="http://www.w3.org/2000/svg">
  <path d="M 11.311 12.035 L 6.928 7.652 C 6.595 7.941 6.206 8.166 5.762 8.327 C 5.318 8.488 4.846 8.569 4.345 8.569 C 3.143 8.569 2.126 8.152 1.293 7.319 C 0.461 6.485 0.045 5.48 0.045 4.302 C 0.045 3.124 0.461 2.119 1.295 1.285 C 2.128 0.452 3.136 0.035 4.32 0.035 C 5.503 0.035 6.509 0.452 7.336 1.285 C 8.164 2.119 8.578 3.125 8.578 4.305 C 8.578 4.781 8.5 5.241 8.345 5.685 C 8.189 6.13 7.956 6.547 7.645 6.935 L 12.045 11.302 L 11.311 12.035 Z M 4.328 7.569 C 5.231 7.569 5.998 7.249 6.63 6.61 C 7.262 5.972 7.578 5.202 7.578 4.302 C 7.578 3.402 7.262 2.633 6.63 1.994 C 5.998 1.355 5.231 1.035 4.328 1.035 C 3.416 1.035 2.641 1.355 2.002 1.994 C 1.364 2.633 1.045 3.402 1.045 4.302 C 1.045 5.202 1.364 5.972 2.002 6.61 C 2.641 7.249 3.416 7.569 4.328 7.569 Z" style="fill: rgb(0, 0, 0);"/>
</svg>