<?xml version="1.0" encoding="utf-8"?>
<svg viewBox="0 0 12 15.763" fill="none" xmlns="http://www.w3.org/2000/svg">
  <path d="M 1.125 5.378 L 8.438 5.378 L 8.438 3.578 C 8.438 2.901 8.201 2.326 7.727 1.852 C 7.254 1.378 6.679 1.141 6.002 1.141 C 5.326 1.141 4.75 1.378 4.275 1.852 C 3.8 2.326 3.563 2.901 3.563 3.578 L 2.438 3.578 C 2.438 2.591 2.785 1.75 3.48 1.056 C 4.175 0.363 5.016 0.016 6.002 0.016 C 6.988 0.016 7.828 0.363 8.522 1.058 C 9.216 1.752 9.563 2.593 9.563 3.578 L 9.563 5.378 L 10.875 5.378 C 11.184 5.378 11.449 5.488 11.67 5.709 C 11.89 5.929 12 6.194 12 6.503 L 12 14.641 C 12 14.95 11.89 15.215 11.67 15.435 C 11.449 15.655 11.184 15.766 10.875 15.766 L 1.125 15.766 C 0.816 15.766 0.551 15.655 0.33 15.435 C 0.11 15.215 0 14.95 0 14.641 L 0 6.503 C 0 6.194 0.11 5.929 0.33 5.709 C 0.551 5.488 0.816 5.378 1.125 5.378 Z M 1.125 14.641 L 10.875 14.641 L 10.875 6.503 L 1.125 6.503 L 1.125 14.641 Z M 6.003 12.016 C 6.401 12.016 6.741 11.878 7.022 11.603 C 7.303 11.327 7.444 10.996 7.444 10.609 C 7.444 10.234 7.302 9.894 7.019 9.588 C 6.735 9.281 6.395 9.128 5.997 9.128 C 5.599 9.128 5.259 9.281 4.978 9.588 C 4.697 9.894 4.556 10.238 4.556 10.619 C 4.556 11 4.698 11.328 4.981 11.603 C 5.265 11.878 5.605 12.016 6.003 12.016 Z" style="fill: rgb(0, 0, 0);" transform="matrix(1, 0, 0, 1, 0, -2.220446049250313e-16)"/>
</svg>