<svg id="dark-trans" xmlns="http://www.w3.org/2000/svg" viewBox="0 0 600 600"><defs><style>.cls-1,.cls-2,.cls-4,.cls-5,.cls-6,.cls-7{fill:none;}.cls-1,.cls-4,.cls-6{stroke:#8477b7;}.cls-1,.cls-2,.cls-5{stroke-miterlimit:10;}.cls-1,.cls-4{stroke-width:60px;}.cls-2,.cls-5,.cls-7{stroke:#2d2d2d;stroke-width:25px;}.cls-3{fill:#8477b7;}.cls-4,.cls-5{stroke-linecap:round;}.cls-4,.cls-6,.cls-7{stroke-linejoin:round;}.cls-6{stroke-width:40px;}</style></defs><title>logo-dark-trans</title><circle class="cls-1" cx="300" cy="300" r="225"/><circle class="cls-2" cx="300" cy="300" r="225"/><g id="sticker"><path class="cls-3" d="M56.55,332.5V205.24c0-6,3.38-9.4,9.4-9.4h37.56c6,0,9.39,3.39,9.39,9.4v7.66c8.62-13,23.58-22.31,43.21-22.31,19,0,34.1,7.66,43.55,22.36,12.18-13,27.62-22.37,50.36-22.37,34.28,0,58.23,23.3,58.23,66.5V374.29h36.44V205.23c0-6,3.38-9.39,9.39-9.39h37.57c6,0,9.39,3.38,9.39,9.39v8.15c12.56-14.32,30.84-22.8,56-22.8,49.21,0,89.79,43.2,89.79,99.18S506.22,388.94,457,388.94c-25.13,0-43.41-8.49-56-22.81v83.29H344.69V332.5H56.55"/><path class="cls-3" d="M56.55,351.28V313.71a9.4,9.4,0,0,1,9.4-9.39h37.56a9.39,9.39,0,0,1,9.39,9.39v37.57a9.38,9.38,0,0,1-9.39,9.39H66A9.39,9.39,0,0,1,56.55,351.28Z"/><path class="cls-4" d="M56.55,332.5V205.24c0-6,3.38-9.4,9.4-9.4h37.56c6,0,9.39,3.39,9.39,9.4v7.66c8.62-13,23.58-22.31,43.21-22.31,19,0,34.1,7.66,43.55,22.36,12.18-13,27.62-22.37,50.36-22.37,34.28,0,58.23,23.3,58.23,66.5V374.29h36.44V205.23c0-6,3.38-9.39,9.39-9.39h37.57c6,0,9.39,3.38,9.39,9.39v8.15c12.56-14.32,30.84-22.8,56-22.8,49.21,0,89.79,43.2,89.79,99.18S506.22,388.94,457,388.94c-25.13,0-43.41-8.49-56-22.81v83.29H344.69V332.5H56.55"/><path class="cls-4" d="M56.55,351.28V313.71a9.4,9.4,0,0,1,9.4-9.39h37.56a9.39,9.39,0,0,1,9.39,9.39v37.57a9.38,9.38,0,0,1-9.39,9.39H66A9.39,9.39,0,0,1,56.55,351.28Z"/></g><g id="lettering"><path class="cls-5" d="M56.55,332.5V205.24c0-6,3.38-9.4,9.4-9.4h37.56c6,0,9.39,3.39,9.39,9.4v7.66c8.62-13,23.58-22.31,43.21-22.31,19,0,34.1,7.66,43.55,22.36,12.18-13,27.62-22.37,50.36-22.37,34.28,0,58.23,23.3,58.23,66.5V374.29"/><path class="cls-5" d="M344.69,449.42V205.23c0-6,3.38-9.39,9.39-9.39h37.57c6,0,9.39,3.38,9.39,9.39v8.15c12.56-14.32,30.84-22.8,56-22.8,49.21,0,89.79,43.2,89.79,99.18S506.22,388.94,457,388.94c-25.13,0-43.41-8.49-56-22.81v83.29"/><path class="cls-6" d="M56.55,351.28V313.71a9.4,9.4,0,0,1,9.4-9.39h37.56a9.39,9.39,0,0,1,9.39,9.39v37.57a9.38,9.38,0,0,1-9.39,9.39H66A9.39,9.39,0,0,1,56.55,351.28Z"/><path class="cls-7" d="M56.55,351.28V313.71a9.4,9.4,0,0,1,9.4-9.39h37.56a9.39,9.39,0,0,1,9.39,9.39v37.57a9.38,9.38,0,0,1-9.39,9.39H66A9.39,9.39,0,0,1,56.55,351.28Z"/></g></svg>